 http://img689.imageshack.us/img689/2116/kungfuu.jpg


Verenigde Staten
Animatie / Actie

geregisseerd door Jennifer Yuh
met de stemmen van Jack Black, Angelina Jolie en Jackie Chan

Po's droom is uitgekomen nu hij De Drakenkrijger is en de Vredesvallei beschermt samen met zijn vrienden en andere Kung Fu meesters, De Vurige Vijf - Tijger, Kraan, Mantis, Viper en Aap. Zijn heerlijke leventje verandert volledig als er een nare tegenstander met een geheim wapen China probeert te veroveren en Kung Fu wilt uitroeien. Samen met De Vurige Vijf moet hij China doorkruisen om deze vijand te overmeesteren. Maar hoe kan Po een wapen ontmantelen dat Kung Fu vernietigt? Hij zal daarvoor eerst zijn mysterieuze verleden moeten ontrafelen om vervolgens de juiste krachten uit zichzelf te halen.





Screenshots:
 
http://img804.imageshack.us/img804/3296/screenshot1xx.jpg
 
http://img856.imageshack.us/img856/4057/screenshot2zjw.jpg
 
http://img804.imageshack.us/img804/6/screenshot3y.jpg
 
http://img268.imageshack.us/img268/4006/screenshot4gt.jpg




INFO;

Video
ID                                       : 0
Format                                   : MPEG-4 Visual
Format profile                           : Advanced Simple@L5
Format settings, BVOP                    : 1
Format settings, QPel                    : No
Format settings, GMC                     : No warppoints
Format settings, Matrix                  : Custom
Codec ID                                 : XVID
Codec ID/Hint                            : XviD
Duration                                 : 1h 30mn
Bit rate                                 : 954 Kbps
Width                                    : 672 pixels
Height                                   : 288 pixels
Display aspect ratio                     : 2.35:1
Frame rate                               : 23.976 fps
Color space                              : YUV
Chroma subsampling                       : 4:2:0
Bit depth                                : 8 bits
Scan type                                : Progressive
Compression mode                         : Lossy
Bits/(Pixel*Frame)                       : 0.205
Stream size                              : 617 MiB (88%)
Writing library                          : XviD 64

Audio
ID                                       : 1
Format                                   : MPEG Audio
Format version                           : Version 1
Format profile                           : Layer 3
Mode                                     : Joint stereo
Mode extension                           : MS Stereo
Codec ID                                 : 55
Codec ID/Hint                            : MP3
Duration                                 : 1h 30mn
Bit rate mode                            : Variable
Bit rate                                 : 117 Kbps
Nominal bit rate                         : 128 Kbps
Channel(s)                               : 2 channels
Sampling rate                            : 48.0 KHz
Compression mode                         : Lossy
Stream size                              : 75.5 MiB (11%)
Alignment                                : Aligned on interleaves
Interleave, duration                     : 24 ms (0.58 video frame)
Interleave, preload duration             : 157 ms
Writing library                          : LAME3.98r


 
http://www.imdb.com/title/tt1302011/ 
http://www.moviemeter.nl/film/71651




Deze film wordt u aangeboden door het DutchReleaseTeam.
Voor de reviews van de nieuwste films, muziek, series, games etc
ga dan eens naar http://www.hetmultimediacafe.be

DutchReleaseteam = Hardcoded Dutch Subs